name C:/MyDriveSym/Projects/mobilecap/Data\Session20210823_0002\mocap\ForceDataProcessed\walkingTS3_forces.mot
datacolumns 19
datarows 9
range 0.00000000 0.00400000
endheader 
time	R_ground_force_vx	R_ground_force_vy	R_ground_force_vz	R_ground_force_px	R_ground_force_py	R_ground_force_pz	R_ground_torque_x	R_ground_torque_y	R_ground_torque_z	L_ground_force_vx	L_ground_force_vy	L_ground_force_vz	L_ground_force_px	L_ground_force_py	L_ground_force_pz	L_ground_torque_x	L_ground_torque_y	L_ground_torque_z	
          0.00000000	        -25.71914100	        235.96922800	        -14.08015100	          0.23997800	          0.00600000	         -0.08261500	          0.00000000	         -0.09026800	          0.00000000	          0.00000000	          0.00000000	          0.00000000	          0.69700600	          0.00000000	         -0.29512700	          0.00000000	          0.00000000	          0.00000000	
          0.00050000	        -26.08357600	        237.15123700	        -14.23688400	          0.23997800	          0.00600000	         -0.08261500	          0.00000000	         -0.09361400	          0.00000000	          0.00000000	          0.00000000	          0.00000000	          0.69700600	          0.00000000	         -0.29512700	          0.00000000	          0.00000000	          0.00000000	
          0.00100000	        -26.45070800	        238.34461400	        -14.39510600	          0.23997800	          0.00600000	         -0.08261500	          0.00000000	         -0.09699500	          0.00000000	          0.00000000	          0.00000000	          0.00000000	          0.69700600	          0.00000000	         -0.29512700	          0.00000000	          0.00000000	          0.00000000	
          0.00150000	        -26.82052500	        239.54937300	        -14.55482100	          0.23997800	          0.00600000	         -0.08261500	          0.00000000	         -0.10041200	          0.00000000	          0.00000000	          0.00000000	          0.00000000	          0.69700600	          0.00000000	         -0.29512700	          0.00000000	          0.00000000	          0.00000000	
          0.00200000	        -27.19301800	        240.76552500	        -14.71602800	          0.24029100	          0.00600000	         -0.08254600	          0.00000000	         -0.10386300	          0.00000000	          0.00000000	          0.00000000	          0.00000000	          0.69700600	          0.00000000	         -0.29512700	          0.00000000	          0.00000000	          0.00000000	
          0.00250000	        -27.56817700	        241.99308200	        -14.87873000	          0.24060500	          0.00600000	         -0.08247700	          0.00000000	         -0.10734800	          0.00000000	          0.00000000	          0.00000000	          0.00000000	          0.69700600	          0.00000000	         -0.29512700	          0.00000000	          0.00000000	          0.00000000	
          0.00300000	        -27.94599000	        243.23205300	        -15.04292800	          0.24091900	          0.00600000	         -0.08240900	          0.00000000	         -0.11086800	          0.00000000	          0.00000000	          0.00000000	          0.00000000	          0.69700600	          0.00000000	         -0.29512700	          0.00000000	          0.00000000	          0.00000000	
          0.00350000	        -28.32644500	        244.48244400	        -15.20862200	          0.24123400	          0.00600000	         -0.08234000	          0.00000000	         -0.11442100	          0.00000000	          0.00000000	          0.00000000	          0.00000000	          0.69700600	          0.00000000	         -0.29512700	          0.00000000	          0.00000000	          0.00000000	
          0.00400000	        -28.70953200	        245.74426000	        -15.37581200	          0.24154900	          0.00600000	         -0.08227300	          0.00000000	         -0.11800700	          0.00000000	          0.00000000	          0.00000000	          0.00000000	          0.69700600	          0.00000000	         -0.29512700	          0.00000000	          0.00000000	          0.00000000	
